<svg xmlns="http://www.w3.org/2000/svg" width="28" height="28" viewBox="0 0 28 28" fill="none">
  <path fill-rule="evenodd" clip-rule="evenodd" d="M5.60005 2.80078C4.85744 2.80078 4.14525 3.09578 3.62015 3.62088C3.09505 4.14598 2.80005 4.85818 2.80005 5.60078V21.0008C2.80005 22.1147 3.24255 23.183 4.0302 23.9706C4.81785 24.7583 5.88614 25.2008 7.00005 25.2008C8.11396 25.2008 9.18224 24.7583 9.9699 23.9706C10.7575 23.183 11.2 22.1147 11.2 21.0008V5.60078C11.2 4.85818 10.905 4.14598 10.3799 3.62088C9.85485 3.09578 9.14265 2.80078 8.40005 2.80078H5.60005ZM7.00005 22.4008C7.37135 22.4008 7.72745 22.2533 7.99 21.9907C8.25255 21.7282 8.40005 21.3721 8.40005 21.0008C8.40005 20.6295 8.25255 20.2734 7.99 20.0108C7.72745 19.7483 7.37135 19.6008 7.00005 19.6008C6.62875 19.6008 6.27265 19.7483 6.0101 20.0108C5.74755 20.2734 5.60005 20.6295 5.60005 21.0008C5.60005 21.3721 5.74755 21.7282 6.0101 21.9907C6.27265 22.2533 6.62875 22.4008 7.00005 22.4008ZM14 19.941L20.86 13.081C21.385 12.5559 21.6798 11.8438 21.6798 11.1014C21.6798 10.3589 21.385 9.64686 20.86 9.12178L18.879 7.14078C18.354 6.61586 17.6419 6.32098 16.8994 6.32098C16.157 6.32098 15.4449 6.61586 14.9198 7.14078L14 8.06058V19.941ZM22.4 25.2008H12.6994L21.0994 16.8008H22.4C23.1427 16.8008 23.8548 17.0958 24.3799 17.6209C24.905 18.146 25.2 18.8582 25.2 19.6008V22.4008C25.2 23.1434 24.905 23.8556 24.3799 24.3807C23.8548 24.9058 23.1427 25.2008 22.4 25.2008Z" fill="#282938"/>
</svg>