<svg xmlns="http://www.w3.org/2000/svg" width="28" height="28" viewBox="0 0 28 28" fill="none">
  <path fill-rule="evenodd" clip-rule="evenodd" d="M14 25.2008C16.9705 25.2008 19.8192 24.0208 21.9196 21.9204C24.0201 19.82 25.2 16.9712 25.2 14.0008C25.2 11.0304 24.0201 8.18159 21.9196 6.08119C19.8192 3.98078 16.9705 2.80078 14 2.80078C11.0296 2.80078 8.18086 3.98078 6.08045 6.08119C3.98005 8.18159 2.80005 11.0304 2.80005 14.0008C2.80005 16.9712 3.98005 19.82 6.08045 21.9204C8.18086 24.0208 11.0296 25.2008 14 25.2008ZM6.06485 11.2386C6.58466 9.74998 7.51215 8.43733 8.74165 7.45018C9.11685 8.02278 9.76365 8.40078 10.5 8.40078C11.057 8.40078 11.5911 8.62203 11.985 9.01586C12.3788 9.40968 12.6 9.94383 12.6 10.5008V11.2008C12.6 11.9434 12.895 12.6556 13.4201 13.1807C13.9453 13.7058 14.6574 14.0008 15.4 14.0008C16.1427 14.0008 16.8548 13.7058 17.3799 13.1807C17.905 12.6556 18.2 11.9434 18.2 11.2008C18.1998 10.5742 18.4098 9.9656 18.7964 9.47244C19.1829 8.97927 19.7237 8.63003 20.3322 8.48058C21.6683 10.0089 22.4032 11.9708 22.4 14.0008C22.4 14.4768 22.3608 14.9458 22.2838 15.4008H21C20.2574 15.4008 19.5453 15.6958 19.0201 16.2209C18.495 16.746 18.2 17.4582 18.2 18.2008V21.2766C16.9237 22.0151 15.4747 22.4029 14 22.4008V19.6008C14 18.8582 13.705 18.146 13.1799 17.6209C12.6548 17.0958 11.9427 16.8008 11.2 16.8008C10.4574 16.8008 9.74525 16.5058 9.22015 15.9807C8.69505 15.4556 8.40005 14.7434 8.40005 14.0008C8.4003 13.3386 8.16584 12.6977 7.73831 12.192C7.31078 11.6863 6.71786 11.3485 6.06485 11.2386Z" fill="black"/>
</svg>