<svg xmlns="http://www.w3.org/2000/svg" width="28" height="28" viewBox="0 0 28 28" fill="none">
  <path fill-rule="evenodd" clip-rule="evenodd" d="M15.8201 1.46387C16.1043 1.55325 16.3526 1.73097 16.5288 1.97117C16.7051 2.21138 16.8001 2.50154 16.8001 2.79947V9.79947H22.4001C22.6562 9.79936 22.9074 9.86949 23.1264 10.0022C23.3454 10.135 23.5238 10.3252 23.6422 10.5523C23.7605 10.7794 23.8144 11.0346 23.7978 11.2901C23.7812 11.5457 23.6948 11.7918 23.5481 12.0017L13.7481 26.0017C13.5775 26.246 13.3334 26.4296 13.0514 26.5256C12.7693 26.6217 12.4639 26.6252 12.1797 26.5357C11.8954 26.4463 11.6472 26.2684 11.471 26.0281C11.2948 25.7877 11.1999 25.4975 11.2001 25.1995V18.1995H5.60009C5.344 18.1996 5.09279 18.1295 4.87379 17.9967C4.65479 17.864 4.4764 17.6737 4.35802 17.4466C4.23964 17.2196 4.18582 16.9643 4.2024 16.7088C4.21899 16.4533 4.30535 16.2071 4.45209 15.9973L14.2521 1.99727C14.4229 1.75338 14.667 1.57029 14.949 1.47462C15.231 1.37895 15.5361 1.37568 15.8201 1.46527V1.46387Z" fill="black"/>
</svg>